<?xml version="1.0" encoding="UTF-8" standalone="no"?>
<svg
   width="440"
   height="720"
   viewBox="0 0 440 720.00001"
   fill="none"
   stroke="#000000"
   stroke-linecap="butt"
   stroke-linejoin="miter"
   version="1.1"
   id="svg4"
   sodipodi:docname="mouse.svg"
   inkscape:export-filename="mouse_default.pdf"
   inkscape:export-xdpi="96"
   inkscape:export-ydpi="96"
   inkscape:version="1.4.4 (dcaf3e7, 2026-05-05)"
   xml:space="preserve"
   xmlns:inkscape="http://www.inkscape.org/namespaces/inkscape"
   xmlns:sodipodi="http://sodipodi.sourceforge.net/DTD/sodipodi-0.dtd"
   xmlns="http://www.w3.org/2000/svg"
   xmlns:svg="http://www.w3.org/2000/svg"><defs
     id="defs4" /><sodipodi:namedview
     id="namedview4"
     pagecolor="#ffffff"
     bordercolor="#000000"
     borderopacity="0.25"
     inkscape:showpageshadow="2"
     inkscape:pageopacity="0.0"
     inkscape:pagecheckerboard="0"
     inkscape:deskcolor="#d1d1d1"
     inkscape:zoom="0.42457096"
     inkscape:cx="214.33402"
     inkscape:cy="574.69781"
     inkscape:window-width="1512"
     inkscape:window-height="831"
     inkscape:window-x="0"
     inkscape:window-y="33"
     inkscape:window-maximized="1"
     inkscape:current-layer="svg4"
     showgrid="false"
     showguides="true"
     inkscape:clip-to-page="false" /><!-- Scroll wheel pill filled solid (drawn first, so the wheel stroke draws on top of it cleanly) --><!-- Mouse body --><rect
     x="53.460594"
     y="-5.3674884"
     width="328.65195"
     height="600.24988"
     rx="146.91394"
     ry="164.03589"
     stroke-width="56.0515"
     id="rect2"
     style="display:none;stroke-width:28;stroke-miterlimit:0;stroke-dasharray:none"
     inkscape:label="old_shape" /><!-- Button separator --><!-- Scroll wheel stroke (on top of the fill) --><!-- Scroll wheel channel above --><g
     id="g1"
     inkscape:label="new_shape"
     transform="matrix(0.99913545,0,0,0.94108525,-0.60182714,75.283796)"><line
       x1="220"
       y1="-6.3924685"
       x2="220"
       y2="64.607529"
       stroke-width="40"
       id="line3"
       style="display:inline;stroke-width:32;stroke-dasharray:none"
       inkscape:label="above_wheel" /><rect
       x="191.8723"
       y="70.608192"
       width="56.255405"
       height="103.99867"
       rx="20.581245"
       ry="26.896208"
       stroke-width="40"
       id="rect3"
       style="display:inline;stroke-width:26.6667;stroke-dasharray:none"
       inkscape:label="wheel" /><line
       x1="220"
       y1="180.60753"
       x2="220"
       y2="249.60753"
       stroke-width="40"
       id="line4"
       style="display:none;stroke-width:32;stroke-dasharray:none"
       inkscape:label="under_wheel" /><path
       d="m 220.38526,-14.699355 c 70.14591,0 122.10583,19.6396073 144.83831,67.722783 13.63948,29.120801 20.13447,92.780212 21.43347,170.661402 0.6495,54.17823 0.6495,100.22972 0,154.40795 -1.299,77.8812 -7.79399,141.5406 -21.43347,170.6614 -22.73248,48.08317 -74.6924,67.72278 -144.83831,67.72278 -70.14591,0 -122.105844,-19.63961 -144.838313,-67.72278 -13.639483,-29.1208 -20.134473,-92.7802 -21.433471,-170.6614 -0.649503,-54.17823 -0.649503,-100.22972 0,-154.40795 C 55.412474,145.80364 61.907464,82.144229 75.546947,53.023428 98.279416,4.9402523 150.23935,-14.699355 220.38526,-14.699355 Z"
       fill="none"
       stroke="#000000"
       stroke-width="21.1529"
       stroke-linejoin="round"
       id="path1"
       style="display:inline;fill:none;stroke-width:42.808;stroke-dasharray:none"
       inkscape:label="new_shape" /><line
       x1="55.820915"
       y1="249.60753"
       x2="380.74326"
       y2="249.60753"
       stroke-width="40"
       id="line2"
       style="display:none;stroke-width:32;stroke-dasharray:none"
       inkscape:label="separator" /><path
       id="left-mouse-button"
       d="m 210.65514,-9.9159342 c -56.91881,0 -116.623779,13.2442891 -135.809895,50.1653432 -11.51167,22.767983 -17.267505,78.149561 -18.54658,143.376761 -0.639537,23.99868 -0.639537,46.76667 0,66.4579 L 209.626,249.5492 l 0.17023,-61.08288 -21.95526,-64.18243 22.2996,-59.37383 z"
       fill="#000000"
       stroke="none"
       inkscape:label="left_mouse_button"
       style="display:none;stroke-width:0.627328"
       sodipodi:nodetypes="ccccccccc" /><path
       id="right-mouse-button"
       d="m 229.34486,-9.9159342 c 56.91881,0 116.62378,13.2442891 135.8099,50.1653432 11.51166,22.767983 17.2675,78.149561 18.54658,143.376761 0.63953,23.99868 0.63953,46.76667 0,66.4579 L 230.374,249.5492 l -0.17023,-61.08288 21.95526,-64.18243 -22.2996,-59.37383 z"
       fill="#000000"
       stroke="none"
       inkscape:label="right_mouse_button"
       style="display:none;stroke-width:0.627328"
       sodipodi:nodetypes="ccccccccc" /><rect
       x="191.8723"
       y="70.608192"
       width="56.255405"
       height="103.99867"
       rx="20.581245"
       ry="26.896208"
       stroke-width="40"
       id="rect1"
       style="display:none;fill:#000000;fill-opacity:1;stroke-width:18.8222;stroke-dasharray:none"
       inkscape:label="mb3_pressed" /><path
       id="path2"
       d="m 228.92355,-0.70522737 c 56.91881,0 116.62379,12.98150237 135.80991,49.17002037 11.51167,22.316248 17.2675,76.599007 18.54658,140.532037 0.63954,23.52253 3.08321,66.35259 2.44367,85.65313 -55.35253,4.55392 -161.1176,8.68019 -169.91192,-56.18178 -8.79431,-64.86197 22.87806,-49.06566 22.87806,-49.06566 l 13.04783,-38.57057 -22.2996,-58.195793 z"
       fill="#000000"
       stroke="none"
       inkscape:label="right_mouse_button_n"
       style="display:none;stroke-width:0.621074"
       sodipodi:nodetypes="cccczcccc" /><path
       d="m 232.18246,105.7905 c 0,1.44636 0.44422,2.89266 1.28312,3.83838 l 17.32254,19.74806 24.08384,24.97722 -24.08384,25.08868 -17.32254,19.74812 c -0.8389,0.9456 -1.28312,2.3919 -1.28312,3.83821 0,3.00369 2.02333,5.22868 4.7377,5.22868 1.28313,0 2.36885,-0.50013 3.45464,-1.66845 l 42.68963,-48.11883 c 1.08574,-1.1681 1.62862,-2.55881 1.62862,-4.06082 0,-1.50196 -0.54288,-2.89267 -1.62862,-4.06087 l -42.68963,-48.1186 c -1.08579,-1.16821 -2.17151,-1.66887 -3.45464,-1.66887 -2.71437,0 -4.7377,2.22515 -4.7377,5.22909 z m -67.16824,48.61925 c 0,3.17105 1.97396,5.39604 4.73781,5.39604 h 86.81025 l 17.86551,-0.61179 c 2.51698,0 4.29365,-1.94718 4.29365,-4.78425 0,-2.83702 -1.77667,-4.78403 -4.24427,-4.78403 l -17.91489,-0.6119 h -86.81025 c -2.76385,0 -4.73781,2.22511 -4.73781,5.39593 z"
       fill="#ffffff"
       fill-opacity="0.85"
       id="path1-1"
       style="display:none;fill:#000000;fill-opacity:1;stroke-width:19.317;stroke-dasharray:none"
       inkscape:label="arrow" /><path
       id="path3"
       d="m 210.40169,-0.70522737 c -56.91881,0 -116.623785,12.98150237 -135.809905,49.17002037 -11.51167,22.316248 -17.2675,76.599007 -18.54658,140.532037 -0.63954,23.52253 -3.08321,66.35259 -2.44367,85.65313 55.352525,4.55392 161.117595,8.68019 169.911915,-56.18178 8.79431,-64.86197 -22.87806,-49.06566 -22.87806,-49.06566 l -13.04783,-38.57057 22.2996,-58.195793 z"
       fill="#000000"
       stroke="none"
       inkscape:label="left_mouse_button_n"
       style="display:inline;stroke-width:0.621074"
       sodipodi:nodetypes="cccczcccc" /></g><!-- Scroll wheel channel below --></svg>
